<?xml version="1.0" encoding="UTF-8" standalone="no"?>
<!-- Generator: Adobe Illustrator 15.1.0, SVG Export Plug-In . SVG Version: 6.00 Build 0)  -->

<svg
   version="1.1"
   id="Vrstva_1"
   x="0px"
   y="0px"
   width="133.144"
   height="133.14301"
   viewBox="0 0 133.14399 133.143"
   enable-background="new 0 0 850.39 309.031"
   xml:space="preserve"
   sodipodi:docname="comitty.svg"
   inkscape:version="1.2.1 (9c6d41e, 2022-07-14)"
   xmlns:inkscape="http://www.inkscape.org/namespaces/inkscape"
   xmlns:sodipodi="http://sodipodi.sourceforge.net/DTD/sodipodi-0.dtd"
   xmlns="http://www.w3.org/2000/svg"
   xmlns:svg="http://www.w3.org/2000/svg"><defs
   id="defs92">
		
		
		
		
		
		
		
	</defs><sodipodi:namedview
   id="namedview90"
   pagecolor="#ffffff"
   bordercolor="#000000"
   borderopacity="0.25"
   inkscape:showpageshadow="2"
   inkscape:pageopacity="0.0"
   inkscape:pagecheckerboard="0"
   inkscape:deskcolor="#d1d1d1"
   showgrid="false"
   inkscape:zoom="0.76367742"
   inkscape:cx="259.9265"
   inkscape:cy="70.710484"
   inkscape:window-width="1309"
   inkscape:window-height="456"
   inkscape:window-x="2106"
   inkscape:window-y="321"
   inkscape:window-maximized="0"
   inkscape:current-layer="g87" />
<g
   id="g87"
   transform="translate(-166.259,-83.791)">
	<g
   id="g69">
		<path
   id="Path_1372_2_"
   fill="#ffffff"
   d="m 299.403,150.363 c 0,36.771 -29.805,66.571 -66.573,66.571 -36.766,0 -66.571,-29.801 -66.571,-66.571 0,-36.768 29.805,-66.572 66.571,-66.572 36.768,0.002 66.573,29.805 66.573,66.572 z" />
		<g
   id="Group_207_2_"
   transform="translate(270.339,189.824)">
			<path
   id="Path_1374_2_"
   fill="#1fa12e"
   d="m -38.211,-36.864 c -9.449,-8.312 -43.517,-11.144 -56.208,-11.921 -5.144,31.436 16.172,61.094 47.61,66.232 9.021,1.479 18.267,0.788 26.969,-2.012 -2.366,-12.286 -9.27,-44.294 -18.371,-52.299 z" />
		</g>
		<g
   id="Group_206_2_"
   transform="translate(285.316,137.349)">
			<path
   id="Path_1373_2_"
   fill="#3090ca"
   d="m -31.094,-10.131 c 10.56,9.296 18.664,45.364 21.813,61.33 21.107,-23.843 18.888,-60.284 -4.961,-81.394 -23.844,-21.106 -60.284,-18.883 -81.39,4.961 -0.245,0.275 -0.486,0.555 -0.726,0.836 17.169,1.173 54.463,4.77 65.264,14.267 z" />
		</g>
	</g>
	
</g>
</svg>
